<?xml version="1.0" encoding="utf-8"?>
<!-- Generator: Adobe Illustrator 25.0.0, SVG Export Plug-In . SVG Version: 6.00 Build 0)  -->
<svg version="1.1" xmlns="http://www.w3.org/2000/svg" xmlns:xlink="http://www.w3.org/1999/xlink" x="0px" y="0px"
	 viewBox="0 0 984.1 357.2" style="enable-background:new 0 0 984.1 357.2;" xml:space="preserve">
<style type="text/css">
	.st0{display:none;}
	.st1{display:inline;fill:#FF00FF;}
	.st2{display:inline;fill:#00A8E3;}
	.st3{opacity:0.95;}
	.st4{fill:#051E33;}
	.st5{fill:none;stroke:#051E33;stroke-width:4;stroke-miterlimit:10;}
	.st6{fill:#01DFFF;}
	.st7{fill:none;stroke:#FFFFFF;stroke-width:4;stroke-miterlimit:10;}
</style>
<g id="图层_1" class="st0">
	
		<image style="display:inline;overflow:visible;enable-background:new    ;" width="441" height="155" id="image0" xlink:href="247B974F.png"  transform="matrix(2.2321 0 0 3.0783 2.7578 -128.2742)">
	</image>
	<path class="st1" d="M2.8-109.9"/>
	<path class="st2" d="M7-88.4l94.7,421.8c1.7,7.4,8.2,12.7,15.8,12.7h29.3c7.5,0,14.1-5.2,15.8-12.5l99.9-423.4
		c2.4-10.2-5.3-20-15.8-20h-23c-7.6,0-14.2,5.3-15.9,12.8l-58.8,269c-3.7,17.1-28.2,17-31.7-0.1L61.2-96.4
		c-1.6-7.8-8.7-13.3-16.6-12.9l-22.4,1C12-107.7,4.8-98.3,7-88.4z"/>
	<path class="st2" d="M374,221.5l44.1-203.6c1.4-6.5,7.2-11.2,13.9-11.2h13.3c9.1,0,15.9,8.5,13.8,17.4l-71.8,313.7
		c-1.5,6.4-7.2,11-13.8,11h-28c-6.7,0-12.4-4.6-13.9-11.1L262.3,24c-2-8.9,4.8-17.2,13.9-17.2h15.4c6.8,0,12.6,4.8,13.9,11.4
		l40.8,203.2C349.3,236.4,370.8,236.6,374,221.5z"/>
	<path class="st2" d="M555.3,193.7v15.2c0,10.8-8.7,19.5-19.5,19.5h-66.9c-10.8,0-19.5-8.7-19.5-19.5v-26.2c0-2.7,0.6-5.4,1.7-7.9
		l123-278.8c3.1-7.1,10.1-11.6,17.8-11.6h20.4c10.8,0,19.5,8.7,19.5,19.5V279c0,10.8,8.7,19.5,19.5,19.5h142.6c1.5,0,3-0.2,4.4-0.5
		c11.7-2.8,60.6-19.5,83.3-106c12.9-49.1,13.9-128.6-8.6-184.3C845-61.7,788.8-66.2,760.2-63.6c-10,0.9-17.6,9.4-17.6,19.4v278.4
		c0,10.8-8.7,19.5-19.5,19.5h-10.7c-10.8,0-19.5-8.7-19.5-19.5v-335.5c0-9.9,7.4-18.2,17.2-19.3c27.4-3.2,82.6-6.6,127.6,10.7
		c1.8,0.7,3.6,1.4,5.3,2.1c58.5,24.6,79.8,71.3,92.3,133.1c12.9,63.6,5,170.9-10.7,209.9c-6.2,15.4-15.1,38.8-29.1,57.7
		c-21.6,29.1-51.5,52.3-72.7,56c-28.5,4.9-167.6,1.9-218.8,0.5c-10.6-0.3-19-8.9-19-19.5V73.1c0-21-28.7-27.1-37.3-8l-36.6,81.7
		c-5.8,13,3.7,27.6,17.9,27.4l6.6-0.1C546.5,174.1,555.3,182.9,555.3,193.7z"/>
	<path class="st1" d="M844.3-54.9"/>
</g>
<g id="图层_2">
	<g>
		<g class="st3">
			<path class="st4" d="M64.5,40.8l92.7,288.8c1.6,5.1,8.1,8.7,15.5,8.7h28.6c7.4,0,13.8-3.5,15.5-8.6l97.8-290
				c2.4-7-5.2-13.7-15.5-13.7h-22.5c-7.5,0-13.9,3.6-15.5,8.7l-57.5,184.2c-3.7,11.7-27.5,11.6-31.1-0.1L117.5,35.4
				c-1.6-5.3-8.5-9.1-16.3-8.8l-21.9,0.7C69.4,27.6,62.3,34.1,64.5,40.8z"/>
			<path class="st5" d="M64.5,40.8l92.7,288.8c1.6,5.1,8.1,8.7,15.5,8.7h28.6c7.4,0,13.8-3.5,15.5-8.6l97.8-290
				c2.4-7-5.2-13.7-15.5-13.7h-22.5c-7.5,0-13.9,3.6-15.5,8.7l-57.5,184.2c-3.7,11.7-27.5,11.6-31.1-0.1L117.5,35.4
				c-1.6-5.3-8.5-9.1-16.3-8.8l-21.9,0.7C69.4,27.6,62.3,34.1,64.5,40.8z"/>
		</g>
		<g>
			<path class="st6" d="M24.5,40.8l92.7,288.8c1.6,5.1,8.1,8.7,15.5,8.7h28.6c7.4,0,13.8-3.5,15.5-8.6l97.8-290
				c2.4-7-5.2-13.7-15.5-13.7h-22.5c-7.5,0-13.9,3.6-15.5,8.7l-57.5,184.2c-3.7,11.7-27.5,11.6-31.1-0.1L77.5,35.4
				c-1.6-5.3-8.5-9.1-16.3-8.8l-21.9,0.7C29.4,27.6,22.3,34.1,24.5,40.8z"/>
			<path class="st7" d="M24.5,40.8l92.7,288.8c1.6,5.1,8.1,8.7,15.5,8.7h28.6c7.4,0,13.8-3.5,15.5-8.6l97.8-290
				c2.4-7-5.2-13.7-15.5-13.7h-22.5c-7.5,0-13.9,3.6-15.5,8.7l-57.5,184.2c-3.7,11.7-27.5,11.6-31.1-0.1L77.5,35.4
				c-1.6-5.3-8.5-9.1-16.3-8.8l-21.9,0.7C29.4,27.6,22.3,34.1,24.5,40.8z"/>
		</g>
	</g>
	<g>
		<g class="st3">
			<path class="st4" d="M423.5,253.1l43.2-139.4c1.4-4.5,7-7.7,13.6-7.7h13c8.9,0,15.5,5.8,13.5,11.9l-70.2,214.9
				c-1.4,4.4-7.1,7.5-13.5,7.5h-27.4c-6.5,0-12.1-3.2-13.6-7.6l-67.8-214.9c-1.9-6.1,4.7-11.8,13.6-11.8h15.1
				c6.6,0,12.3,3.3,13.6,7.8L396.4,253C399.3,263.3,420.3,263.4,423.5,253.1z"/>
			<path class="st5" d="M423.5,253.1l43.2-139.4c1.4-4.5,7-7.7,13.6-7.7h13c8.9,0,15.5,5.8,13.5,11.9l-70.2,214.9
				c-1.4,4.4-7.1,7.5-13.5,7.5h-27.4c-6.5,0-12.1-3.2-13.6-7.6l-67.8-214.9c-1.9-6.1,4.7-11.8,13.6-11.8h15.1
				c6.6,0,12.3,3.3,13.6,7.8L396.4,253C399.3,263.3,420.3,263.4,423.5,253.1z"/>
		</g>
		<g>
			<path class="st6" d="M383.5,253.1l43.2-139.4c1.4-4.5,7-7.7,13.6-7.7h13c8.9,0,15.5,5.8,13.5,11.9l-70.2,214.9
				c-1.4,4.4-7.1,7.5-13.5,7.5h-27.4c-6.5,0-12.1-3.2-13.6-7.6l-67.8-214.9c-1.9-6.1,4.7-11.8,13.6-11.8h15.1
				c6.6,0,12.3,3.3,13.6,7.8L356.4,253C359.3,263.3,380.3,263.4,383.5,253.1z"/>
			<path class="st7" d="M383.5,253.1l43.2-139.4c1.4-4.5,7-7.7,13.6-7.7h13c8.9,0,15.5,5.8,13.5,11.9l-70.2,214.9
				c-1.4,4.4-7.1,7.5-13.5,7.5h-27.4c-6.5,0-12.1-3.2-13.6-7.6l-67.8-214.9c-1.9-6.1,4.7-11.8,13.6-11.8h15.1
				c6.6,0,12.3,3.3,13.6,7.8L356.4,253C359.3,263.3,380.3,263.4,383.5,253.1z"/>
		</g>
	</g>
	<g>
		<g class="st3">
			<path class="st4" d="M600.8,234v10.4c0,7.4-8.5,13.3-19.1,13.3h-65.4c-10.5,0-19.1-6-19.1-13.3v-18c0-1.9,0.6-3.7,1.6-5.4
				L619.3,30.2c3-4.8,9.9-8,17.4-8h19.9c10.5,0,19.1,6,19.1,13.3v256.9c0,7.4,8.5,13.3,19.1,13.3h139.5c1.5,0,2.9-0.1,4.4-0.4
				c11.5-1.9,59.3-13.4,81.5-72.6c12.6-33.6,13.6-88.1-8.4-126.2C884.3,59.1,829.3,56,801.3,57.9c-9.8,0.6-17.2,6.4-17.2,13.3v190.7
				c0,7.4-8.5,13.3-19.1,13.3h-10.5c-10.5,0-19.1-6-19.1-13.3V32.1c0-6.8,7.2-12.5,16.8-13.3c26.8-2.2,80.8-4.5,124.8,7.3
				c1.8,0.5,3.5,1,5.2,1.5c57.2,16.9,78,48.8,90.3,91.1c12.6,43.6,4.9,117-10.5,143.7C956,273,947.4,289,933.6,302
				c-21.1,19.9-50.4,35.8-71.1,38.3c-27.9,3.4-164,1.3-214.1,0.4c-10.3-0.2-18.6-6.1-18.6-13.3V151.5c0-14.4-28-18.6-36.4-5.5
				l-35.8,55.9c-5.7,8.9,3.7,18.9,17.5,18.8l6.5,0C592.2,220.6,600.8,226.6,600.8,234z"/>
			<path class="st5" d="M600.8,234v10.4c0,7.4-8.5,13.3-19.1,13.3h-65.4c-10.5,0-19.1-6-19.1-13.3v-18c0-1.9,0.6-3.7,1.6-5.4
				L619.3,30.2c3-4.8,9.9-8,17.4-8h19.9c10.5,0,19.1,6,19.1,13.3v256.9c0,7.4,8.5,13.3,19.1,13.3h139.5c1.5,0,2.9-0.1,4.4-0.4
				c11.5-1.9,59.3-13.4,81.5-72.6c12.6-33.6,13.6-88.1-8.4-126.2C884.3,59.1,829.3,56,801.3,57.9c-9.8,0.6-17.2,6.4-17.2,13.3v190.7
				c0,7.4-8.5,13.3-19.1,13.3h-10.5c-10.5,0-19.1-6-19.1-13.3V32.1c0-6.8,7.2-12.5,16.8-13.3c26.8-2.2,80.8-4.5,124.8,7.3
				c1.8,0.5,3.5,1,5.2,1.5c57.2,16.9,78,48.8,90.3,91.1c12.6,43.6,4.9,117-10.5,143.7C956,273,947.4,289,933.6,302
				c-21.1,19.9-50.4,35.8-71.1,38.3c-27.9,3.4-164,1.3-214.1,0.4c-10.3-0.2-18.6-6.1-18.6-13.3V151.5c0-14.4-28-18.6-36.4-5.5
				l-35.8,55.9c-5.7,8.9,3.7,18.9,17.5,18.8l6.5,0C592.2,220.6,600.8,226.6,600.8,234z"/>
		</g>
		<g>
			<path class="st6" d="M560.8,234v10.4c0,7.4-8.5,13.3-19.1,13.3h-65.4c-10.5,0-19.1-6-19.1-13.3v-18c0-1.9,0.6-3.7,1.6-5.4
				L579.3,30.2c3-4.8,9.9-8,17.4-8h19.9c10.5,0,19.1,6,19.1,13.3v256.9c0,7.4,8.5,13.3,19.1,13.3h139.5c1.5,0,2.9-0.1,4.4-0.4
				c11.5-1.9,59.3-13.4,81.5-72.6c12.6-33.6,13.6-88.1-8.4-126.2C844.3,59.1,789.3,56,761.3,57.9c-9.8,0.6-17.2,6.4-17.2,13.3v190.7
				c0,7.4-8.5,13.3-19.1,13.3h-10.5c-10.5,0-19.1-6-19.1-13.3V32.1c0-6.8,7.2-12.5,16.8-13.3c26.8-2.2,80.8-4.5,124.8,7.3
				c1.8,0.5,3.5,1,5.2,1.5c57.2,16.9,78,48.8,90.3,91.1c12.6,43.6,4.9,117-10.5,143.7C916,273,907.4,289,893.6,302
				c-21.1,19.9-50.4,35.8-71.1,38.3c-27.9,3.4-164,1.3-214.1,0.4c-10.3-0.2-18.6-6.1-18.6-13.3V151.5c0-14.4-28-18.6-36.4-5.5
				l-35.8,55.9c-5.7,8.9,3.7,18.9,17.5,18.8l6.5,0C552.2,220.6,560.8,226.6,560.8,234z"/>
			<path class="st7" d="M560.8,234v10.4c0,7.4-8.5,13.3-19.1,13.3h-65.4c-10.5,0-19.1-6-19.1-13.3v-18c0-1.9,0.6-3.7,1.6-5.4
				L579.3,30.2c3-4.8,9.9-8,17.4-8h19.9c10.5,0,19.1,6,19.1,13.3v256.9c0,7.4,8.5,13.3,19.1,13.3h139.5c1.5,0,2.9-0.1,4.4-0.4
				c11.5-1.9,59.3-13.4,81.5-72.6c12.6-33.6,13.6-88.1-8.4-126.2C844.3,59.1,789.3,56,761.3,57.9c-9.8,0.6-17.2,6.4-17.2,13.3v190.7
				c0,7.4-8.5,13.3-19.1,13.3h-10.5c-10.5,0-19.1-6-19.1-13.3V32.1c0-6.8,7.2-12.5,16.8-13.3c26.8-2.2,80.8-4.5,124.8,7.3
				c1.8,0.5,3.5,1,5.2,1.5c57.2,16.9,78,48.8,90.3,91.1c12.6,43.6,4.9,117-10.5,143.7C916,273,907.4,289,893.6,302
				c-21.1,19.9-50.4,35.8-71.1,38.3c-27.9,3.4-164,1.3-214.1,0.4c-10.3-0.2-18.6-6.1-18.6-13.3V151.5c0-14.4-28-18.6-36.4-5.5
				l-35.8,55.9c-5.7,8.9,3.7,18.9,17.5,18.8l6.5,0C552.2,220.6,560.8,226.6,560.8,234z"/>
		</g>
	</g>
</g>
</svg>
